<?xml version="1.0" standalone="no"?><!DOCTYPE svg PUBLIC "-//W3C//DTD SVG 1.1//EN" "http://www.w3.org/Graphics/SVG/1.1/DTD/svg11.dtd"><svg t="1682048249792" class="icon" viewBox="0 0 1024 1024" version="1.1" xmlns="http://www.w3.org/2000/svg" p-id="36369" xmlns:xlink="http://www.w3.org/1999/xlink" width="200" height="200"><path d="M974.933333 497.066667l-298.666667-298.666667C672 194.133333 667.733333 192 661.333333 192c-12.8 0-21.333333 8.533333-21.333333 21.333333l0 192L128 405.333333c-46.933333 0-85.333333 38.4-85.333333 85.333333l0 42.666667c0 46.933333 38.4 85.333333 85.333333 85.333333l512 0 0 192c0 12.8 8.533333 21.333333 21.333333 21.333333 6.4 0 10.666667-2.133333 14.933333-6.4l298.666667-298.666667c4.266667-4.266667 6.4-8.533333 6.4-14.933333C981.333333 505.6 979.2 501.333333 974.933333 497.066667zM682.666667 759.466667 682.666667 618.666667l0-42.666667L128 576c-23.466667 0-42.666667-19.2-42.666667-42.666667l0-42.666667c0-23.466667 19.2-42.666667 42.666667-42.666667l554.666667 0 0-42.666667 0-140.8L930.133333 512 682.666667 759.466667z" fill="#0B80E0" p-id="36370"></path></svg>