<?xml version="1.0" standalone="no"?><!DOCTYPE svg PUBLIC "-//W3C//DTD SVG 1.1//EN" "http://www.w3.org/Graphics/SVG/1.1/DTD/svg11.dtd"><svg t="1682048259387" class="icon" viewBox="0 0 1024 1024" version="1.1" xmlns="http://www.w3.org/2000/svg" p-id="36518" xmlns:xlink="http://www.w3.org/1999/xlink" width="200" height="200"><path d="M896 405.333333 384 405.333333l0-192c0-12.8-8.533333-21.333333-21.333333-21.333333-6.4 0-10.666667 2.133333-14.933333 6.4l-298.666667 298.666667C44.8 501.333333 42.666667 505.6 42.666667 512c0 6.4 2.133333 10.666667 6.4 14.933333l298.666667 298.666667c4.266667 4.266667 8.533333 6.4 14.933333 6.4 12.8 0 21.333333-8.533333 21.333333-21.333333l0-192 512 0c46.933333 0 85.333333-38.4 85.333333-85.333333l0-42.666667C981.333333 443.733333 942.933333 405.333333 896 405.333333zM938.666667 533.333333c0 23.466667-19.2 42.666667-42.666667 42.666667L341.333333 576l0 183.466667L93.866667 512 341.333333 264.533333 341.333333 448l554.666667 0c23.466667 0 42.666667 19.2 42.666667 42.666667L938.666667 533.333333z" fill="#0B80E0" p-id="36519"></path></svg>