<?xml version="1.0" standalone="no"?><!DOCTYPE svg PUBLIC "-//W3C//DTD SVG 1.1//EN" "http://www.w3.org/Graphics/SVG/1.1/DTD/svg11.dtd"><svg t="1682049584952" class="icon" viewBox="0 0 1024 1024" version="1.1" xmlns="http://www.w3.org/2000/svg" p-id="53493" xmlns:xlink="http://www.w3.org/1999/xlink" width="200" height="200"><path d="M459.961011 716.805419v114.808727c0 30.281269-35.241148 46.921969-58.628077 27.662251-129.415625-106.530824-258.843893-213.059842-388.273967-319.603309-17.410149-14.339576-17.410149-41.008407 0-55.349789A4672009.166564 4672009.166564 0 0 0 401.332934 164.721796c23.38693-19.248881 58.628078-2.606375 58.628077 27.673089v114.810534h528.205401c19.790747 0 35.8372 16.046454 35.8372 35.8372v337.925599c0 19.790747-16.046454 35.8372-35.8372 35.837201H459.961011zM383.156947 384.000452v-104.836591L100.290336 512 383.156947 744.848782v-104.849234h564.040795V384.000452H383.156947z" fill="#231815" p-id="53494"></path></svg>