<?xml version="1.0" standalone="no"?><!DOCTYPE svg PUBLIC "-//W3C//DTD SVG 1.1//EN" "http://www.w3.org/Graphics/SVG/1.1/DTD/svg11.dtd"><svg t="1682049576682" class="icon" viewBox="0 0 1024 1024" version="1.1" xmlns="http://www.w3.org/2000/svg" p-id="53344" xmlns:xlink="http://www.w3.org/1999/xlink" width="200" height="200"><path d="M640.844859 640.001355H76.804064V384.000452h564.040795v-104.836591l282.870224 232.836139L640.844859 744.848782v-104.847427z m-76.804064-332.79413H35.835394C16.04826 307.207225 0 323.253679 0 343.044425v337.9256c0 19.790747 16.04826 35.8372 35.835394 35.8372h528.205401v114.808728c0 30.281269 35.241148 46.921969 58.61724 27.662251 129.428268-106.530824 258.858342-213.059842 388.273967-319.603309 17.420987-14.339576 17.420987-41.008407 0-55.34979-129.415625-106.529018-258.845699-213.058035-388.273967-319.601502-23.374286-19.248881-58.61724-2.606375-58.61724 27.673088v114.810534z" fill="#231815" p-id="53345"></path></svg>